<?xml version="1.0" encoding="utf-8"?>
<!-- Generator: Adobe Illustrator 22.0.1, SVG Export Plug-In . SVG Version: 6.00 Build 0)  -->
<svg version="1.1" id="Layer_1" xmlns="http://www.w3.org/2000/svg" xmlns:xlink="http://www.w3.org/1999/xlink" x="0px" y="0px"
	 viewBox="0 0 178 41" style="enable-background:new 0 0 178 41;" xml:space="preserve">
<style type="text/css">
	.st0{fill:#EE4380;}
	.st1{fill:#EE4380;stroke:#EE4380;stroke-width:0.75;stroke-miterlimit:10;}
</style>
<g>
	<g>
		<path class="st0" d="M62.8,13.1v3.4h-4.4V31h-3.5V16.6h-4.2v-3.4H62.8z"/>
		<path class="st0" d="M68.9,21.3c0.5-0.5,1-0.8,1.6-1.1c0.5-0.3,1-0.4,1.3-0.4l-0.2,3.4c-0.1,0-0.2,0-0.4,0c-0.7,0-1.3,0.2-1.8,0.5
			c-0.5,0.4-0.9,0.8-1.2,1.4c-0.3,0.6-0.4,1.1-0.4,1.7V31h-3.4V20.4h3.1l0.3,2.4C68,22.3,68.4,21.8,68.9,21.3z"/>
		<path class="st0" d="M85.7,20.4V31h-3.4v-1.3c-1,1.1-2.2,1.6-3.5,1.6c-1.6,0-2.8-0.5-3.8-1.4c-1-0.9-1.5-2.3-1.5-4.2
			c0-1.2,0.2-2.2,0.7-3.1c0.5-0.9,1.1-1.6,1.9-2.1c0.8-0.5,1.6-0.7,2.6-0.7c0.9,0,1.7,0.1,2.2,0.4c0.6,0.3,1,0.7,1.5,1.2l0.2-1.1
			H85.7z M82.3,27v-2.6c-0.2-0.5-0.5-0.9-1-1.2c-0.5-0.3-1-0.5-1.7-0.5c-0.7,0-1.4,0.3-1.9,0.8c-0.5,0.6-0.8,1.2-0.8,2.1
			c0,0.6,0.1,1.1,0.4,1.5c0.3,0.5,0.6,0.8,1,1.1s0.9,0.4,1.4,0.4C80.9,28.6,81.7,28,82.3,27z"/>
		<path class="st0" d="M101.1,11.9V31h-3.4v-1.1c-1.2,0.9-2.5,1.4-3.9,1.4c-1,0-1.9-0.2-2.7-0.7c-0.8-0.5-1.4-1.1-1.8-2
			c-0.4-0.9-0.7-1.9-0.7-3.1c0-1.2,0.2-2.2,0.7-3c0.5-0.9,1.1-1.5,2-1.9c0.8-0.4,1.8-0.7,2.9-0.7c0.7,0,1.4,0.1,2,0.3
			c0.6,0.2,1.1,0.5,1.6,1v-9.3H101.1z M96.6,28.1c0.5-0.3,0.8-0.7,1.1-1.2v-2.6c-0.2-0.5-0.5-0.9-1-1.2c-0.5-0.3-1.1-0.5-1.8-0.5
			c-0.8,0-1.4,0.3-2,0.8c-0.6,0.6-0.8,1.3-0.8,2.1c0,0.6,0.1,1.1,0.4,1.5c0.3,0.5,0.6,0.8,1,1.1c0.4,0.3,0.9,0.4,1.4,0.4
			C95.5,28.5,96.1,28.3,96.6,28.1z"/>
		<path class="st0" d="M112.2,27.7l1.5,2.5c-0.6,0.3-1.2,0.6-1.8,0.8c-0.6,0.2-1.3,0.3-1.8,0.3c-1.3,0-2.4-0.2-3.3-0.7
			c-0.9-0.5-1.6-1.2-2.1-2c-0.5-0.9-0.7-1.9-0.7-3c0-1,0.3-2,0.8-2.9c0.5-0.9,1.3-1.6,2.2-2.1c0.9-0.5,2-0.8,3.1-0.8
			c1.5,0,2.8,0.4,3.8,1.3c1,0.9,1.6,2.2,1.9,3.8l-7.8,2.5c0.5,0.6,1.2,0.9,2.1,0.9C110.8,28.4,111.5,28.2,112.2,27.7z M108,23.3
			c-0.5,0.5-0.7,1.2-0.7,2.1v0.2l4.7-1.6c-0.3-1-1.1-1.5-2.2-1.5C109.1,22.6,108.5,22.8,108,23.3z"/>
		<path class="st0" d="M138.5,30.7c-1,0.4-2.1,0.6-3.2,0.6c-1.9,0-3.5-0.4-4.9-1.2s-2.4-1.9-3.2-3.3c-0.7-1.4-1.1-2.9-1.1-4.5
			c0-1.8,0.4-3.4,1.1-4.8s1.8-2.5,3.1-3.3c1.3-0.8,2.8-1.2,4.5-1.2c1.1,0,2.1,0.1,3,0.4c0.9,0.3,1.7,0.7,2.4,1.1l-1.4,3.3
			c-1.3-1-2.6-1.5-3.9-1.5c-0.9,0-1.8,0.3-2.6,0.8c-0.8,0.5-1.4,1.2-1.9,2.1c-0.5,0.9-0.7,1.8-0.7,2.9c0,1.2,0.2,2.2,0.7,3
			c0.4,0.9,1.1,1.5,1.9,2s1.8,0.7,2.8,0.7c0.9,0,1.7-0.1,2.4-0.4s1.2-0.6,1.7-1l1.5,3.2C140.2,29.9,139.5,30.3,138.5,30.7z"/>
		<path class="st0" d="M143.8,22.7c0.5-0.9,1.2-1.5,2.2-2c0.9-0.5,2-0.7,3.2-0.7c1.2,0,2.2,0.2,3.1,0.7c0.9,0.5,1.6,1.2,2.1,2
			c0.5,0.9,0.7,1.8,0.7,2.9s-0.2,2.1-0.7,2.9c-0.5,0.9-1.2,1.6-2.1,2.1c-0.9,0.5-2,0.7-3.2,0.7c-1.2,0-2.2-0.2-3.1-0.7
			c-0.9-0.5-1.6-1.1-2.1-2s-0.8-1.9-0.8-3.1C143,24.5,143.3,23.5,143.8,22.7z M147.2,27.7c0.5,0.6,1.1,0.8,1.8,0.8
			c0.8,0,1.4-0.3,1.9-0.8c0.5-0.6,0.7-1.3,0.7-2.1s-0.2-1.6-0.7-2.1c-0.5-0.6-1.1-0.8-1.9-0.8c-0.7,0-1.4,0.3-1.8,0.8
			c-0.5,0.6-0.7,1.3-0.7,2.1C146.5,26.5,146.7,27.2,147.2,27.7z"/>
		<path class="st0" d="M158.5,15.4c0.4-0.3,0.8-0.5,1.3-0.5c0.5,0,0.9,0.2,1.3,0.5c0.4,0.3,0.6,0.7,0.6,1.2s-0.2,0.9-0.6,1.2
			c-0.4,0.3-0.8,0.5-1.3,0.5c-0.5,0-0.9-0.2-1.3-0.5c-0.4-0.3-0.6-0.7-0.6-1.2S158.1,15.8,158.5,15.4z M161.4,20.4V31H158V20.4
			H161.4z"/>
		<path class="st0" d="M175,20.8c0.7,0.6,1,1.4,1,2.3v8h-3.4v-6.7c0-1-0.6-1.6-1.6-1.6c-0.8,0-1.4,0.4-1.9,1.1
			c-0.5,0.7-0.7,1.7-0.7,2.8V31h-3.4V20.4h3.1l0.2,1.7c0.4-0.7,0.9-1.2,1.6-1.6c0.7-0.4,1.5-0.6,2.4-0.6
			C173.5,19.9,174.4,20.2,175,20.8z"/>
	</g>
</g>
<path class="st1" d="M6.9,18.9c-0.3,0-0.6-0.3-0.6-0.6c0,0,0-0.1,0-0.1c1.1-6.1,5.8-10.9,11.9-11.9c0.3-0.1,0.7,0.2,0.7,0.5
	c0.1,0.3-0.2,0.7-0.5,0.7c-5.6,1-9.9,5.4-10.9,10.9C7.4,18.7,7.2,18.9,6.9,18.9z"/>
<path class="st1" d="M23.2,35.3c-0.3,0-0.6-0.3-0.6-0.6c0-0.3,0.2-0.6,0.5-0.6c5.6-1,9.9-5.4,10.9-10.9c0.1-0.3,0.4-0.6,0.7-0.5
	c0.3,0.1,0.6,0.4,0.5,0.7c0,0,0,0,0,0c-1.1,6.1-5.8,10.9-11.9,11.9C23.3,35.3,23.2,35.3,23.2,35.3z"/>
<circle class="st1" cx="6.7" cy="20.8" r="0.6"/>
<circle class="st1" cx="34.9" cy="20.8" r="0.6"/>
<path class="st1" d="M20.8,39.1c-10.2,0-18.4-8.2-18.4-18.4c0-4.9,1.9-9.6,5.4-13c7.2-7.2,18.8-7.2,26,0s7.2,18.8,0,26
	C30.3,37.2,25.6,39.2,20.8,39.1z M20.8,3.6c-9.5,0-17.2,7.7-17.2,17.2c0,4.6,1.8,8.9,5,12.1c6.7,6.7,17.6,6.7,24.3,0
	s6.7-17.6,0-24.3C29.7,5.4,25.3,3.6,20.8,3.6z"/>
<g>
	<path class="st1" d="M14.5,14.6h12.3c0.3,0,0.6,0.3,0.6,0.6c0,0.3-0.3,0.6-0.6,0.6H15.2v4.3c0,1,0.8,1.8,1.8,1.8h7.4
		c0.3,0,0.6,0.3,0.6,0.6s-0.3,0.6-0.6,0.6H17c-1.7,0-3.1-1.4-3.1-3.1v-4.9C13.9,14.9,14.2,14.6,14.5,14.6z"/>
	<path class="st1" d="M24.3,19.5H17c-0.3,0-0.6-0.3-0.6-0.6s0.3-0.6,0.6-0.6h7.4c1.7,0,3.1,1.4,3.1,3.1v4.9c0,0.3-0.3,0.6-0.6,0.6
		H14.5c-0.3,0-0.6-0.3-0.6-0.6s0.3-0.6,0.6-0.6h11.6v-4.3C26.2,20.4,25.4,19.5,24.3,19.5z"/>
</g>
<g>
	<path class="st0" d="M19.8,14.7L19.8,14.7c-0.3,0-0.5-0.2-0.5-0.5v-1.4c0-0.3,0.2-0.5,0.5-0.5l0,0c0.3,0,0.5,0.2,0.5,0.5v1.4
		C20.3,14.5,20.1,14.7,19.8,14.7z"/>
	<path class="st0" d="M21.5,14.7L21.5,14.7c-0.3,0-0.5-0.2-0.5-0.5v-1.4c0-0.3,0.2-0.5,0.5-0.5l0,0c0.3,0,0.5,0.2,0.5,0.5v1.4
		C22,14.5,21.8,14.7,21.5,14.7z"/>
</g>
<g>
	<path class="st0" d="M19.8,28.9L19.8,28.9c-0.3,0-0.5-0.2-0.5-0.5V27c0-0.3,0.2-0.5,0.5-0.5l0,0c0.3,0,0.5,0.2,0.5,0.5v1.4
		C20.3,28.7,20.1,28.9,19.8,28.9z"/>
	<path class="st0" d="M21.5,28.9L21.5,28.9c-0.3,0-0.5-0.2-0.5-0.5V27c0-0.3,0.2-0.5,0.5-0.5l0,0c0.3,0,0.5,0.2,0.5,0.5v1.4
		C22,28.7,21.8,28.9,21.5,28.9z"/>
</g>
</svg>
